<svg width="32" height="32" viewBox="0 0 32 32" xmlns="http://www.w3.org/2000/svg">
  <defs>
    <!-- Gradient for the midnight sky effect -->
    <linearGradient id="midnightGradient" x1="0%" y1="0%" x2="0%" y2="100%">
      <stop offset="0%" style="stop-color:#000814;stop-opacity:1" />
      <stop offset="100%" style="stop-color:#001d3d;stop-opacity:1" />
    </linearGradient>
    
    <!-- Glow effect for the nodes -->
    <filter id="glow">
      <feGaussianBlur stdDeviation="2" result="coloredBlur"/>
      <feMerge>
        <feMergeNode in="coloredBlur"/>
        <feMergeNode in="SourceGraphic"/>
      </feMerge>
    </filter>
    
    <!-- Terminal scan line effect -->
    <linearGradient id="scanline" x1="0%" y1="0%" x2="0%" y2="100%">
      <stop offset="0%" style="stop-color:#00ff00;stop-opacity:0" />
      <stop offset="50%" style="stop-color:#00ff00;stop-opacity:0.3" />
      <stop offset="100%" style="stop-color:#00ff00;stop-opacity:0" />
    </linearGradient>
  </defs>
  
  <!-- Background -->
  <rect width="32" height="32" fill="url(#midnightGradient)"/>
  
  <!-- Terminal frame -->
  <rect x="2" y="2" width="28" height="28" rx="2" fill="none" stroke="#00ff00" stroke-width="0.5" opacity="0.3"/>
  
  <!-- Network nodes representing AI agents -->
  <g id="network">
    <!-- Central node -->
    <circle cx="16" cy="16" r="3" fill="#00ffff" filter="url(#glow)"/>
    
    <!-- Surrounding nodes -->
    <circle cx="8" cy="8" r="2" fill="#00ff00" filter="url(#glow)"/>
    <circle cx="24" cy="8" r="2" fill="#00ff00" filter="url(#glow)"/>
    <circle cx="8" cy="24" r="2" fill="#00ff00" filter="url(#glow)"/>
    <circle cx="24" cy="24" r="2" fill="#00ff00" filter="url(#glow)"/>
    
    <!-- Connection lines -->
    <line x1="16" y1="16" x2="8" y2="8" stroke="#00ff00" stroke-width="0.5" opacity="0.6"/>
    <line x1="16" y1="16" x2="24" y2="8" stroke="#00ff00" stroke-width="0.5" opacity="0.6"/>
    <line x1="16" y1="16" x2="8" y2="24" stroke="#00ff00" stroke-width="0.5" opacity="0.6"/>
    <line x1="16" y1="16" x2="24" y2="24" stroke="#00ff00" stroke-width="0.5" opacity="0.6"/>
    
    <!-- Cross connections for network effect -->
    <line x1="8" y1="8" x2="24" y2="8" stroke="#00ff00" stroke-width="0.3" opacity="0.3"/>
    <line x1="8" y1="24" x2="24" y2="24" stroke="#00ff00" stroke-width="0.3" opacity="0.3"/>
  </g>
  
  <!-- Moon/midnight symbol in corner -->
  <path d="M 26 6 C 26 6 24 4 22 4 C 22 6 22 8 24 8 C 26 8 26 6 26 6 Z" fill="#ffff00" opacity="0.6"/>
  
  <!-- Scan line effect -->
  <rect x="0" y="0" width="32" height="32" fill="url(#scanline)" opacity="0.2">
    <animate attributeName="y" values="-32;32;-32" dur="3s" repeatCount="indefinite"/>
  </rect>
  
  <!-- Corner highlight -->
  <circle cx="2" cy="2" r="1" fill="#00ff00" opacity="0.8"/>
  <circle cx="30" cy="2" r="1" fill="#00ff00" opacity="0.8"/>
  <circle cx="2" cy="30" r="1" fill="#00ff00" opacity="0.8"/>
  <circle cx="30" cy="30" r="1" fill="#00ff00" opacity="0.8"/>
</svg>